<svg width="26" height="26" viewBox="0 0 26 26" fill="none" xmlns="http://www.w3.org/2000/svg">
<g clip-path="url(#clip0_1492_90)">
<rect x="5.00002" width="2" height="7" rx="1" fill="black"/>
<rect x="-0.0153427" y="5.0957" width="2" height="7" rx="1" transform="rotate(-72 -0.0153427 5.0957)" fill="black"/>
<rect x="3.28231" y="11.4414" width="2" height="7" rx="1" transform="rotate(-144 3.28231 11.4414)" fill="black"/>
<rect x="10.3357" y="10.2676" width="2" height="7" rx="1" transform="rotate(144 10.3357 10.2676)" fill="black"/>
<rect x="11.3973" y="3.19531" width="2" height="7" rx="1" transform="rotate(72 11.3973 3.19531)" fill="black"/>
</g>
<g clip-path="url(#clip1_1492_90)">
<rect x="19" width="2" height="12" rx="1" fill="black"/>
<rect x="15.3039" y="9.86523" width="2" height="12" rx="1" transform="rotate(-120 15.3039 9.86523)" fill="black"/>
<rect x="25.6962" y="8.13477" width="2" height="12" rx="1" transform="rotate(120 25.6962 8.13477)" fill="black"/>
</g>
<g clip-path="url(#clip2_1492_90)">
<rect x="5.00002" y="14" width="2" height="7" rx="1" fill="black"/>
<rect x="0.685539" y="17.041" width="2" height="7" rx="1" transform="rotate(-51.4286 0.685539 17.041)" fill="black"/>
<rect x="0.372971" y="22.3105" width="2" height="7" rx="1" transform="rotate(-102.857 0.372971 22.3105)" fill="black"/>
<rect x="4.29768" y="25.8398" width="2" height="7" rx="1" transform="rotate(-154.286 4.29768 25.8398)" fill="black"/>
<rect x="9.50429" y="24.9727" width="2" height="7" rx="1" transform="rotate(154.286 9.50429 24.9727)" fill="black"/>
<rect x="12.0721" y="20.3594" width="2" height="7" rx="1" transform="rotate(102.857 12.0721 20.3594)" fill="black"/>
<rect x="10.0675" y="15.4766" width="2" height="7" rx="1" transform="rotate(51.4286 10.0675 15.4766)" fill="black"/>
</g>
<g clip-path="url(#clip3_1492_90)">
<rect x="19.0001" y="14" width="2" height="12" rx="1" fill="black"/>
<rect x="15.0503" y="16.4648" width="2" height="12" rx="1" transform="rotate(-45 15.0503 16.4648)" fill="black"/>
<rect x="14" y="21" width="2" height="12" rx="1" transform="rotate(-90 14 21)" fill="black"/>
<rect x="16.4645" y="24.9492" width="2" height="12" rx="1" transform="rotate(-135 16.4645 24.9492)" fill="black"/>
</g>
<defs>
<clipPath id="clip0_1492_90">
<rect width="12" height="12" fill="white"/>
</clipPath>
<clipPath id="clip1_1492_90">
<rect width="12" height="12" fill="white" transform="translate(14)"/>
</clipPath>
<clipPath id="clip2_1492_90">
<rect width="12" height="12" fill="white" transform="translate(1.52588e-05 14)"/>
</clipPath>
<clipPath id="clip3_1492_90">
<rect width="12" height="12" fill="white" transform="translate(14 14)"/>
</clipPath>
</defs>
</svg>
