<svg width="28" height="28" viewBox="0 0 28 28" fill="none" xmlns="http://www.w3.org/2000/svg">
<g clip-path="url(#clip0_1785_130)">
<path d="M5.38467 1.07692C5.38467 0.482156 5.86683 0 6.4616 0C7.05636 0 7.53852 0.482155 7.53852 1.07692V4.97813L11.2499 3.77224C11.8155 3.58845 12.4231 3.89801 12.6069 4.46367C12.7907 5.02933 12.4811 5.63688 11.9154 5.82067L8.20415 7.02654L10.4978 10.1834C10.8474 10.6646 10.7407 11.3381 10.2595 11.6877C9.77834 12.0373 9.10487 11.9306 8.75527 11.4494L6.46212 8.29318L4.16782 11.451C3.81822 11.9322 3.14475 12.0389 2.66357 11.6893C2.18239 11.3397 2.07573 10.6662 2.42532 10.185L4.7185 7.02873L1.0077 5.82302C0.442046 5.63923 0.132483 5.03168 0.316276 4.46602C0.500069 3.90036 1.10762 3.5908 1.67328 3.77459L5.38467 4.9805V1.07692Z" fill="black"/>
<path d="M20.4616 1.07692C20.4616 0.482155 20.9437 0 21.5385 0C22.1333 0 22.6154 0.482155 22.6154 1.07692V4.59631L25.6632 2.83664C26.1783 2.53926 26.837 2.71574 27.1344 3.23082C27.4317 3.74591 27.2553 4.40454 26.7402 4.70193L23.6923 6.46163L26.7401 8.2213C27.2552 8.51869 27.4317 9.17732 27.1343 9.69241C26.8369 10.2075 26.1783 10.384 25.6632 10.0866L22.6154 8.32696V11.8461C22.6154 12.4409 22.1333 12.9231 21.5385 12.9231C20.9437 12.9231 20.4616 12.4409 20.4616 11.8461V8.32687L17.4137 10.0865C16.8987 10.3839 16.24 10.2074 15.9426 9.69236C15.6453 9.17727 15.8217 8.51864 16.3368 8.22125L19.3846 6.46163L16.3368 4.70198C15.8217 4.40459 15.6452 3.74596 15.9426 3.23087C16.24 2.71579 16.8986 2.53931 17.4137 2.83669L20.4616 4.59639V1.07692Z" fill="black"/>
<path d="M6.4616 15.0762C5.86683 15.0762 5.38467 15.5583 5.38467 16.1531V19.3021L2.92315 17.3391C2.45815 16.9682 1.78056 17.0446 1.40973 17.5096C1.0389 17.9746 1.11525 18.6522 1.58025 19.023L4.0411 20.9855L0.972287 21.6859C0.392431 21.8183 0.0296544 22.3956 0.162003 22.9755C0.294351 23.5553 0.871707 23.9181 1.45156 23.7858L4.5208 23.0852L3.15498 25.9214C2.89692 26.4572 3.12212 27.1009 3.65799 27.3589C4.19386 27.617 4.83746 27.3918 5.09552 26.8559L6.46133 24.0198L7.82757 26.8568C8.08563 27.3927 8.72924 27.6179 9.26511 27.3598C9.80097 27.1018 10.0262 26.4582 9.76812 25.9223L8.40192 23.0854L11.4716 23.786C12.0514 23.9183 12.6288 23.5556 12.7611 22.9757C12.8935 22.3958 12.5307 21.8185 11.9508 21.6861L8.88214 20.9857L11.3429 19.0234C11.8079 18.6525 11.8842 17.9749 11.5134 17.5099C11.1426 17.0449 10.465 16.9686 9.99998 17.3394L7.53852 19.3024V16.1531C7.53852 15.5583 7.05636 15.0762 6.4616 15.0762Z" fill="black"/>
<path d="M20.4616 16.1531C20.4616 15.5583 20.9437 15.0762 21.5385 15.0762C22.1333 15.0762 22.6154 15.5583 22.6154 16.1531V18.9387L24.5845 16.9697C25.005 16.5491 25.6869 16.5491 26.1075 16.9697C26.528 17.3902 26.528 18.0721 26.1075 18.4927L24.1387 20.4614H26.9231C27.5178 20.4614 28 20.9435 28 21.5383C28 22.1331 27.5178 22.6152 26.9231 22.6152H24.1387L26.1075 24.584C26.528 25.0045 26.528 25.6864 26.1075 26.107C25.6869 26.5275 25.005 26.5275 24.5845 26.107L22.6154 24.1379V26.9223C22.6154 27.5171 22.1333 27.9992 21.5385 27.9992C20.9437 27.9992 20.4616 27.5171 20.4616 26.9223V24.1385L18.4925 26.1076C18.0719 26.5282 17.3901 26.5282 16.9695 26.1076C16.5489 25.6871 16.5489 25.0052 16.9695 24.5846L18.9389 22.6152H16.1539C15.5591 22.6152 15.0769 22.1331 15.0769 21.5383C15.0769 20.9435 15.5591 20.4614 16.1539 20.4614H18.9389L16.9695 18.492C16.5489 18.0714 16.5489 17.3895 16.9695 16.969C17.39 16.5484 18.0719 16.5484 18.4925 16.969L20.4616 18.9381V16.1531Z" fill="black"/>
</g>
<defs>
<clipPath id="clip0_1785_130">
<rect width="28" height="27.9992" fill="white"/>
</clipPath>
</defs>
</svg>
