<?xml version="1.0" encoding="UTF-8"?>
<svg width="306px" height="306px" viewBox="0 0 306 306" version="1.1" xmlns="http://www.w3.org/2000/svg" xmlns:xlink="http://www.w3.org/1999/xlink">
    <title>mesh</title>
    <g id="mesh" stroke="none" stroke-width="1" fill="none" fill-rule="evenodd">
        <path d="M156,9 C156,7.343146 157.34314,6 159,6 L195,6 C196.65686,6 198,7.343146 198,9 C198,10.656854 196.65686,12 195,12 L159,12 C157.34314,12 156,10.656854 156,9 Z" id="Fill-1" fill="#000000"></path>
        <path d="M156,21 C156,19.343145 157.34314,18 159,18 L224,18 C225.65686,18 227,19.343145 227,21 C227,22.656855 225.65686,24 224,24 L159,24 C157.34314,24 156,22.656855 156,21 Z" id="Fill-2" fill="#000000"></path>
        <path d="M156,33 C156,31.343145 157.34314,30 159,30 L243,30 C244.65686,30 246,31.343145 246,33 C246,34.656855 244.65686,36 243,36 L159,36 C157.34314,36 156,34.656855 156,33 Z" id="Fill-3" fill="#000000"></path>
        <path d="M156,45 C156,43.343147 157.34314,42 159,42 L257,42 C258.65686,42 260,43.343147 260,45 C260,46.656853 258.65686,48 257,48 L159,48 C157.34314,48 156,46.656853 156,45 Z" id="Fill-4" fill="#000000"></path>
        <path d="M156,57 C156,55.343147 157.34314,54 159,54 L268,54 C269.65686,54 271,55.343147 271,57 C271,58.656853 269.65686,60 268,60 L159,60 C157.34314,60 156,58.656853 156,57 Z" id="Fill-5" fill="#000000"></path>
        <path d="M156,69 C156,67.343147 157.34314,66 159,66 L277,66 C278.65686,66 280,67.343147 280,69 C280,70.656853 278.65686,72 277,72 L159,72 C157.34314,72 156,70.656853 156,69 Z" id="Fill-6" fill="#000000"></path>
        <path d="M156,81 C156,79.343147 157.34314,78 159,78 L284,78 C285.65686,78 287,79.343147 287,81 C287,82.656853 285.65686,84 284,84 L159,84 C157.34314,84 156,82.656853 156,81 Z" id="Fill-7" fill="#000000"></path>
        <path d="M156,93 C156,91.343147 157.34314,90 159,90 L290,90 C291.65686,90 293,91.343147 293,93 C293,94.656853 291.65686,96 290,96 L159,96 C157.34314,96 156,94.656853 156,93 Z" id="Fill-8" fill="#000000"></path>
        <path d="M156,105 C156,103.343147 157.34314,102 159,102 L295,102 C296.65686,102 298,103.343147 298,105 C298,106.656853 296.65686,108 295,108 L159,108 C157.34314,108 156,106.656853 156,105 Z" id="Fill-9" fill="#000000"></path>
        <path d="M156,117 C156,115.343147 157.34314,114 159,114 L298,114 C299.65686,114 301,115.343147 301,117 C301,118.656853 299.65686,120 298,120 L159,120 C157.34314,120 156,118.656853 156,117 Z" id="Fill-10" fill="#000000"></path>
        <path d="M156,129 C156,127.343147 157.34314,126 159,126 L301,126 C302.65686,126 304,127.343147 304,129 C304,130.656853 302.65686,132 301,132 L159,132 C157.34314,132 156,130.656853 156,129 Z" id="Fill-11" fill="#000000"></path>
        <path d="M156,141 C156,139.34314 157.34314,138 159,138 L302,138 C303.65686,138 305,139.34314 305,141 C305,142.65686 303.65686,144 302,144 L159,144 C157.34314,144 156,142.65686 156,141 Z" id="Fill-12" fill="#000000"></path>
        <path d="M156,297 C156,298.65686 157.34314,300 159,300 L195,300 C196.65686,300 198,298.65686 198,297 C198,295.34314 196.65686,294 195,294 L159,294 C157.34314,294 156,295.34314 156,297 Z" id="Fill-13" fill="#000000"></path>
        <path d="M156,285 C156,286.65686 157.34314,288 159,288 L224,288 C225.65686,288 227,286.65686 227,285 C227,283.34314 225.65686,282 224,282 L159,282 C157.34314,282 156,283.34314 156,285 Z" id="Fill-14" fill="#000000"></path>
        <path d="M156,273 C156,274.65686 157.34314,276 159,276 L243,276 C244.65686,276 246,274.65686 246,273 C246,271.34314 244.65686,270 243,270 L159,270 C157.34314,270 156,271.34314 156,273 Z" id="Fill-15" fill="#000000"></path>
        <path d="M156,261 C156,262.65686 157.34314,264 159,264 L257,264 C258.65686,264 260,262.65686 260,261 C260,259.34314 258.65686,258 257,258 L159,258 C157.34314,258 156,259.34314 156,261 Z" id="Fill-16" fill="#000000"></path>
        <path d="M156,249 C156,250.65686 157.34314,252 159,252 L268,252 C269.65686,252 271,250.65686 271,249 C271,247.34314 269.65686,246 268,246 L159,246 C157.34314,246 156,247.34314 156,249 Z" id="Fill-17" fill="#000000"></path>
        <path d="M156,237 C156,238.65686 157.34314,240 159,240 L277,240 C278.65686,240 280,238.65686 280,237 C280,235.34314 278.65686,234 277,234 L159,234 C157.34314,234 156,235.34314 156,237 Z" id="Fill-18" fill="#000000"></path>
        <path d="M156,225 C156,226.65686 157.34314,228 159,228 L284,228 C285.65686,228 287,226.65686 287,225 C287,223.34314 285.65686,222 284,222 L159,222 C157.34314,222 156,223.34314 156,225 Z" id="Fill-19" fill="#000000"></path>
        <path d="M156,213 C156,214.65686 157.34314,216 159,216 L290,216 C291.65686,216 293,214.65686 293,213 C293,211.34314 291.65686,210 290,210 L159,210 C157.34314,210 156,211.34314 156,213 Z" id="Fill-20" fill="#000000"></path>
        <path d="M156,201 C156,202.65686 157.34314,204 159,204 L295,204 C296.65686,204 298,202.65686 298,201 C298,199.34314 296.65686,198 295,198 L159,198 C157.34314,198 156,199.34314 156,201 Z" id="Fill-21" fill="#000000"></path>
        <path d="M156,189 C156,190.65686 157.34314,192 159,192 L298,192 C299.65686,192 301,190.65686 301,189 C301,187.34314 299.65686,186 298,186 L159,186 C157.34314,186 156,187.34314 156,189 Z" id="Fill-22" fill="#000000"></path>
        <path d="M156,177 C156,178.65686 157.34314,180 159,180 L301,180 C302.65686,180 304,178.65686 304,177 C304,175.34314 302.65686,174 301,174 L159,174 C157.34314,174 156,175.34314 156,177 Z" id="Fill-23" fill="#000000"></path>
        <path d="M156,165 C156,166.65686 157.34314,168 159,168 L302,168 C303.65686,168 305,166.65686 305,165 C305,163.34314 303.65686,162 302,162 L159,162 C157.34314,162 156,163.34314 156,165 Z" id="Fill-24" fill="#000000"></path>
        <path d="M156,153 C156,151.34314 157.34314,150 159,150 L303,150 C304.65686,150 306,151.34314 306,153 C306,154.65686 304.65686,156 303,156 L159,156 C157.34314,156 156,154.65686 156,153 Z" id="Fill-25" fill="#000000"></path>
        <path d="M150,9 C150,7.343146 148.65686,6 147,6 L111,6 C109.343147,6 108,7.343146 108,9 C108,10.656854 109.343147,12 111,12 L147,12 C148.65686,12 150,10.656854 150,9 Z" id="Fill-26" fill="#000000"></path>
        <path d="M150,21 C150,19.343145 148.65686,18 147,18 L82,18 C80.343147,18 79,19.343145 79,21 C79,22.656855 80.343147,24 82,24 L147,24 C148.65686,24 150,22.656855 150,21 Z" id="Fill-27" fill="#000000"></path>
        <path d="M150,33 C150,31.343145 148.65686,30 147,30 L63,30 C61.343151,30 60,31.343145 60,33 C60,34.656855 61.343147,36 63,36 L147,36 C148.65686,36 150,34.656855 150,33 Z" id="Fill-28" fill="#000000"></path>
        <path d="M150,45 C150,43.343147 148.65686,42 147,42 L49,42 C47.343147,42 46,43.343147 46,45 C46,46.656853 47.343147,48 49,48 L147,48 C148.65686,48 150,46.656853 150,45 Z" id="Fill-29" fill="#000000"></path>
        <path d="M150,57 C150,55.343147 148.65686,54 147,54 L38,54 C36.343151,54 35,55.343147 35,57 C35,58.656853 36.343147,60 38,60 L147,60 C148.65686,60 150,58.656853 150,57 Z" id="Fill-30" fill="#000000"></path>
        <path d="M150,69 C150,67.343147 148.65686,66 147,66 L29,66 C27.343142,66 26,67.343147 26,69 C26,70.656853 27.343145,72 29,72 L147,72 C148.65686,72 150,70.656853 150,69 Z" id="Fill-31" fill="#000000"></path>
        <path d="M150,81 C150,79.343147 148.65686,78 147,78 L22,78 C20.343145,78 19,79.343147 19,81 C19,82.656853 20.343145,84 22,84 L147,84 C148.65686,84 150,82.656853 150,81 Z" id="Fill-32" fill="#000000"></path>
        <path d="M150,93 C150,91.343147 148.65686,90 147,90 L16,90 C14.343143,90 13,91.343147 13,93 C13,94.656853 14.343145,96 16,96 L147,96 C148.65686,96 150,94.656853 150,93 Z" id="Fill-33" fill="#000000"></path>
        <path d="M150,105 C150,103.343147 148.65686,102 147,102 L11,102 C9.343143,102 8,103.343147 8,105 C8,106.656853 9.343145,108 11,108 L147,108 C148.65686,108 150,106.656853 150,105 Z" id="Fill-34" fill="#000000"></path>
        <path d="M150,117 C150,115.343147 148.65686,114 147,114 L8,114 C6.343148,114 5,115.343147 5,117 C5,118.656853 6.343146,120 8,120 L147,120 C148.65686,120 150,118.656853 150,117 Z" id="Fill-35" fill="#000000"></path>
        <path d="M150,129 C150,127.343147 148.65686,126 147,126 L5,126 C3.343149,126 2,127.343147 2,129 C2,130.656853 3.343146,132 5,132 L147,132 C148.65686,132 150,130.656853 150,129 Z" id="Fill-36" fill="#000000"></path>
        <path d="M150,141 C150,139.34314 148.65686,138 147,138 L4,138 C2.343143,138 1,139.34314 1,141 C1,142.65686 2.343146,144 4,144 L147,144 C148.65686,144 150,142.65686 150,141 Z" id="Fill-37" fill="#000000"></path>
        <path d="M150,297 C150,298.65686 148.65686,300 147,300 L111,300 C109.343147,300 108,298.65686 108,297 C108,295.34314 109.343147,294 111,294 L147,294 C148.65686,294 150,295.34314 150,297 Z" id="Fill-38" fill="#000000"></path>
        <path d="M150,285 C150,286.65686 148.65686,288 147,288 L82,288 C80.343147,288 79,286.65686 79,285 C79,283.34314 80.343147,282 82,282 L147,282 C148.65686,282 150,283.34314 150,285 Z" id="Fill-39" fill="#000000"></path>
        <path d="M150,273 C150,274.65686 148.65686,276 147,276 L63,276 C61.343151,276 60,274.65686 60,273 C60,271.34314 61.343147,270 63,270 L147,270 C148.65686,270 150,271.34314 150,273 Z" id="Fill-40" fill="#000000"></path>
        <path d="M150,261 C150,262.65686 148.65686,264 147,264 L49,264 C47.343147,264 46,262.65686 46,261 C46,259.34314 47.343147,258 49,258 L147,258 C148.65686,258 150,259.34314 150,261 Z" id="Fill-41" fill="#000000"></path>
        <path d="M150,249 C150,250.65686 148.65686,252 147,252 L38,252 C36.343151,252 35,250.65686 35,249 C35,247.34314 36.343147,246 38,246 L147,246 C148.65686,246 150,247.34314 150,249 Z" id="Fill-42" fill="#000000"></path>
        <path d="M150,237 C150,238.65686 148.65686,240 147,240 L29,240 C27.343142,240 26,238.65686 26,237 C26,235.34314 27.343145,234 29,234 L147,234 C148.65686,234 150,235.34314 150,237 Z" id="Fill-43" fill="#000000"></path>
        <path d="M150,225 C150,226.65686 148.65686,228 147,228 L22,228 C20.343145,228 19,226.65686 19,225 C19,223.34314 20.343145,222 22,222 L147,222 C148.65686,222 150,223.34314 150,225 Z" id="Fill-44" fill="#000000"></path>
        <path d="M150,213 C150,214.65686 148.65686,216 147,216 L16,216 C14.343143,216 13,214.65686 13,213 C13,211.34314 14.343145,210 16,210 L147,210 C148.65686,210 150,211.34314 150,213 Z" id="Fill-45" fill="#000000"></path>
        <path d="M150,201 C150,202.65686 148.65686,204 147,204 L11,204 C9.343143,204 8,202.65686 8,201 C8,199.34314 9.343145,198 11,198 L147,198 C148.65686,198 150,199.34314 150,201 Z" id="Fill-46" fill="#000000"></path>
        <path d="M150,189 C150,190.65686 148.65686,192 147,192 L8,192 C6.343148,192 5,190.65686 5,189 C5,187.34314 6.343146,186 8,186 L147,186 C148.65686,186 150,187.34314 150,189 Z" id="Fill-47" fill="#000000"></path>
        <path d="M150,177 C150,178.65686 148.65686,180 147,180 L5,180 C3.343149,180 2,178.65686 2,177 C2,175.34314 3.343146,174 5,174 L147,174 C148.65686,174 150,175.34314 150,177 Z" id="Fill-48" fill="#000000"></path>
        <path d="M150,165 C150,166.65686 148.65686,168 147,168 L4,168 C2.343143,168 1,166.65686 1,165 C1,163.34314 2.343146,162 4,162 L147,162 C148.65686,162 150,163.34314 150,165 Z" id="Fill-49" fill="#000000"></path>
        <path d="M150,153 C150,151.34314 148.65686,150 147,150 L3,150 C1.343143,150 0,151.34314 0,153 C0,154.65686 1.343146,156 3,156 L147,156 C148.65686,156 150,154.65686 150,153 Z" id="Fill-50" fill="#000000"></path>
    </g>
</svg>